<svg xmlns="http://www.w3.org/2000/svg" xmlns:xlink="http://www.w3.org/1999/xlink" width="80" height="80" viewBox="0 0 80 80">
  <defs>
    <style>
      .cls-1, .cls-3 {
        fill: #fff;
      }

      .cls-1 {
        stroke: #707070;
      }

      .cls-2 {
        clip-path: url(#clip-path);
      }
    </style>
    <clipPath id="clip-path">
      <circle id="Ellipse_11" data-name="Ellipse 11" class="cls-1" cx="40" cy="40" r="40" transform="translate(1058 1591)"/>
    </clipPath>
  </defs>
  <g id="Groupe_de_masques_7" data-name="Groupe de masques 7" class="cls-2" transform="translate(-1058 -1591)">
    <g id="comments" transform="translate(1058 1591)">
      <g id="Groupe_40" data-name="Groupe 40">
        <path id="Tracé_48" data-name="Tracé 48" class="cls-3" d="M47.211,51.226A28.342,28.342,0,0,0,58.661,42.9a17.782,17.782,0,0,0,0-22.946,28.352,28.352,0,0,0-11.45-8.326A40.211,40.211,0,0,0,31.429,8.569a40.213,40.213,0,0,0-15.782,3.059A28.351,28.351,0,0,0,4.2,19.954,18.026,18.026,0,0,0,0,31.427a17.541,17.541,0,0,0,3.17,10,26.082,26.082,0,0,0,8.705,7.9q-.446,1.072-.915,1.965a11.317,11.317,0,0,1-1.116,1.719q-.647.827-1,1.294T7.679,55.624q-.8.848-1.027,1.116c0-.03-.06.038-.179.2s-.186.238-.2.224-.074.058-.178.222l-.156.246-.112.223a.935.935,0,0,0-.089.268,1.747,1.747,0,0,0-.023.29.907.907,0,0,0,.045.29,1.482,1.482,0,0,0,.514.938A1.4,1.4,0,0,0,7.188,60h.134a37.433,37.433,0,0,0,3.839-.714,37.554,37.554,0,0,0,12.411-5.714,44.833,44.833,0,0,0,7.857.714A40.178,40.178,0,0,0,47.211,51.226ZM22.233,47.5l-1.965,1.383q-1.25.848-2.768,1.742l1.563-3.751-4.33-2.5a20.527,20.527,0,0,1-6.652-5.893,12.163,12.163,0,0,1-2.366-7.054A12.688,12.688,0,0,1,9.22,22.9a23.924,23.924,0,0,1,9.442-6.3,34.759,34.759,0,0,1,12.768-2.322A34.759,34.759,0,0,1,44.2,16.6a23.937,23.937,0,0,1,9.443,6.3,12.686,12.686,0,0,1,3.5,8.527,12.686,12.686,0,0,1-3.5,8.527A23.919,23.919,0,0,1,44.2,46.248,34.751,34.751,0,0,1,31.429,48.57a38.662,38.662,0,0,1-6.83-.625Z"/>
        <path id="Tracé_49" data-name="Tracé 49" class="cls-3" d="M76.83,52.876a17.426,17.426,0,0,0-.178-20.291,26.463,26.463,0,0,0-9.108-7.946A22.975,22.975,0,0,1,65.58,42.765a29.882,29.882,0,0,1-8.571,9.464,39.53,39.53,0,0,1-11.786,5.759A47.166,47.166,0,0,1,31.428,60q-1.339,0-3.928-.178a37.514,37.514,0,0,0,21.071,5.893A44.856,44.856,0,0,0,56.428,65a35.653,35.653,0,0,0,16.25,6.429,1.346,1.346,0,0,0,.982-.312,1.653,1.653,0,0,0,.58-.981c-.014-.179,0-.277.045-.291s.036-.111-.023-.29-.089-.268-.089-.268l-.111-.223a2.138,2.138,0,0,0-.156-.245,1.962,1.962,0,0,0-.179-.223c-.044-.044-.11-.119-.2-.223s-.149-.171-.179-.2q-.223-.268-1.026-1.116t-1.161-1.316q-.357-.469-1-1.3a11.291,11.291,0,0,1-1.116-1.719q-.469-.893-.915-1.964A26.183,26.183,0,0,0,76.83,52.876Z"/>
      </g>
    </g>
  </g>
</svg>
