<svg xmlns="http://www.w3.org/2000/svg" xmlns:xlink="http://www.w3.org/1999/xlink" width="80" height="80" viewBox="0 0 80 80">
  <defs>
    <style>
      .cls-1, .cls-3 {
        fill: #fff;
      }

      .cls-1 {
        stroke: #707070;
      }

      .cls-2 {
        clip-path: url(#clip-path);
      }
    </style>
    <clipPath id="clip-path">
      <circle id="Ellipse_10" data-name="Ellipse 10" class="cls-1" cx="40" cy="40" r="40" transform="translate(856 1591)"/>
    </clipPath>
  </defs>
  <g id="Groupe_de_masques_8" data-name="Groupe de masques 8" class="cls-2" transform="translate(-856 -1591)">
    <g id="comment-white-oval-bubble" transform="translate(856 1591)">
      <path id="Tracé_50" data-name="Tracé 50" class="cls-3" d="M74.643,19.934A36.182,36.182,0,0,0,60.09,9.532,51.894,51.894,0,0,0,40,5.715,51.894,51.894,0,0,0,19.911,9.532a36.178,36.178,0,0,0-14.553,10.4A22.265,22.265,0,0,0,0,34.286,21.661,21.661,0,0,0,4.04,46.831a32.774,32.774,0,0,0,11.049,9.822,28.5,28.5,0,0,1-1.161,3.393q-.67,1.607-1.205,2.634a18.12,18.12,0,0,1-1.451,2.276q-.914,1.251-1.384,1.764t-1.54,1.7Q7.277,69.6,6.964,69.957a3.14,3.14,0,0,0-.357.4l-.313.378-.268.4c-.149.222-.216.364-.2.423a1.186,1.186,0,0,1-.089.446.589.589,0,0,0,.022.536v.045a2.275,2.275,0,0,0,.714,1.228,1.788,1.788,0,0,0,1.206.468H7.9a33.663,33.663,0,0,0,5.089-.982A48.786,48.786,0,0,0,33.527,62.5,61.038,61.038,0,0,0,40,62.857a51.88,51.88,0,0,0,20.09-3.817,36.182,36.182,0,0,0,14.553-10.4,21.9,21.9,0,0,0,0-28.7ZM69.62,45.67a32.064,32.064,0,0,1-12.59,8.37A46.314,46.314,0,0,1,40,57.143a50.4,50.4,0,0,1-5.8-.357l-2.545-.267-1.92,1.7a44.017,44.017,0,0,1-12.277,7.634,32.029,32.029,0,0,0,3.125-7.678l1.205-4.286L17.9,51.654a27.227,27.227,0,0,1-9-7.836,16.29,16.29,0,0,1-3.192-9.531A16.871,16.871,0,0,1,10.379,22.9a32.06,32.06,0,0,1,12.59-8.37A46.294,46.294,0,0,1,40,11.429a46.292,46.292,0,0,1,17.03,3.1A32.069,32.069,0,0,1,69.62,22.9a16.871,16.871,0,0,1,4.665,11.384A16.873,16.873,0,0,1,69.62,45.67Z"/>
    </g>
  </g>
</svg>
